<svg width="147" height="58" viewBox="0 0 147 58" fill="none" xmlns="http://www.w3.org/2000/svg">
<path d="M46.448 0.495996C47.248 0.495996 47.92 0.527997 48.464 0.591998V1.072C46.48 1.168 44.768 1.648 43.328 2.512C41.696 3.504 40.528 4.432 39.824 5.296C39.152 6.128 38.608 6.816 38.192 7.36C37.808 7.872 37.424 8.496 37.04 9.232C36.432 10.352 35.872 11.456 35.36 12.544L22.496 40.672C21.024 43.84 20.24 45.936 20.144 46.96H19.712L5.168 15.616C4.688 14.72 4.08 14.048 3.344 13.6C2.608 13.12 1.856 12.88 1.088 12.88H0.704V12.4H15.968V12.88H15.584C14.88 12.88 14.352 13.104 14 13.552C13.68 13.968 13.52 14.368 13.52 14.752C13.52 15.136 13.584 15.52 13.712 15.904L21.872 35.728L31.808 12.544C33.312 8.992 35.072 6.32 37.088 4.528C40.064 1.84 43.184 0.495996 46.448 0.495996ZM57.5326 45.52H58.1566V46H43.5646V45.52H44.1886C45.0206 45.52 45.7246 45.232 46.3006 44.656C46.9086 44.048 47.2286 43.328 47.2606 42.496V14.368L42.7006 14.56C39.6926 14.688 38.1886 15.808 38.1886 17.92C38.1886 18.784 38.4766 19.52 39.0526 20.128C39.6606 20.704 40.4926 20.992 41.5486 20.992C41.6446 20.992 41.7406 20.992 41.8366 20.992V21.28C41.1966 21.504 40.6526 21.616 40.2046 21.616C38.7646 21.616 37.6606 21.104 36.8926 20.08C36.3486 19.376 36.0766 18.576 36.0766 17.68C36.0766 16.272 36.6366 15.12 37.7566 14.224C38.8446 13.296 40.5406 12.752 42.8446 12.592C43.2606 12.56 44.6046 12.496 46.8766 12.4C52.0606 12.208 55.8206 11.888 58.1566 11.44L58.2526 11.92C56.8766 12.144 55.9006 12.608 55.3246 13.312C54.7806 14.016 54.4926 15.056 54.4606 16.432V42.496C54.4926 43.328 54.7966 44.048 55.3726 44.656C55.9806 45.232 56.7006 45.52 57.5326 45.52ZM69.9673 12.352C70.5113 12.352 71.5033 12.352 72.9433 12.352C74.3833 12.352 77.0553 12.368 80.9593 12.4C86.6233 12.464 91.1033 14 94.3993 17.008C97.6953 19.984 99.3433 24.064 99.3433 29.248C99.3433 34.4 97.6953 38.48 94.3993 41.488C91.1033 44.496 86.6233 46 80.9593 46H63.5353V45.52H64.1593C64.9593 45.52 65.6473 45.248 66.2233 44.704C66.8313 44.128 67.1673 43.44 67.2313 42.64V14.56C63.6473 14.816 60.9913 15.648 59.2632 17.056C58.3992 17.728 57.7272 18.416 57.2472 19.12C56.7352 19.824 56.2392 20.672 55.7592 21.664L55.2792 21.472C56.0472 18.272 57.6472 15.968 60.0793 14.56C62.5433 13.12 65.8393 12.384 69.9673 12.352ZM80.3833 43.984C83.8073 43.984 86.5113 42.656 88.4953 40C90.5113 37.344 91.5193 33.744 91.5193 29.2C91.5193 24.656 90.5113 21.072 88.4953 18.448C86.5113 15.824 83.8393 14.512 80.4793 14.512C80.4473 14.512 80.4153 14.512 80.3833 14.512H74.4313V43.984H80.3833ZM146.243 54.784C142.755 56.544 139.219 56.832 135.635 55.648C131.827 54.432 128.547 51.84 125.795 47.872C124.323 45.76 123.059 43.312 122.003 40.528L120.467 36.448H109.139L106.595 42.496C106.435 42.912 106.355 43.248 106.355 43.504C106.355 43.76 106.403 44.048 106.499 44.368C106.627 44.656 106.867 44.928 107.219 45.184C107.603 45.408 108.019 45.52 108.467 45.52H108.851V46H98.579V45.52H99.011C99.747 45.52 100.467 45.312 101.171 44.896C101.907 44.448 102.515 43.792 102.995 42.928L113.699 18.496C112.451 15.68 111.123 13.744 109.715 12.688C108.531 11.792 107.395 11.344 106.307 11.344C105.251 11.344 104.259 11.504 103.331 11.824L103.235 11.344C105.539 10.16 107.747 9.568 109.859 9.568C112.483 9.568 114.835 10.592 116.915 12.64C118.963 14.656 120.771 17.568 122.339 21.376L129.299 38.56C131.923 45.056 134.611 49.52 137.363 51.952C138.483 52.944 139.635 53.632 140.819 54.016C142.003 54.4 142.995 54.592 143.795 54.592C144.627 54.592 145.427 54.496 146.195 54.304L146.243 54.784ZM109.955 34.384H119.747L116.387 25.504C116.227 25.056 116.003 24.448 115.715 23.68C115.427 22.88 115.235 22.32 115.139 22L109.955 34.384Z" fill="#667EEA"/>
</svg>
