<svg width="164" height="61" viewBox="0 0 164 61" fill="none" xmlns="http://www.w3.org/2000/svg">
<rect opacity="0.09" width="164" height="61" fill="#D9D9D9"/>
<path d="M56.448 1.496C57.248 1.496 57.92 1.528 58.464 1.592V2.072C56.48 2.168 54.768 2.648 53.328 3.512C51.696 4.504 50.528 5.432 49.824 6.296C49.152 7.128 48.608 7.816 48.192 8.36C47.808 8.872 47.424 9.496 47.04 10.232C46.432 11.352 45.872 12.456 45.36 13.544L32.496 41.672C31.024 44.84 30.24 46.936 30.144 47.96H29.712L15.168 16.616C14.688 15.72 14.08 15.048 13.344 14.6C12.608 14.12 11.856 13.88 11.088 13.88H10.704V13.4H25.968V13.88H25.584C24.88 13.88 24.352 14.104 24 14.552C23.68 14.968 23.52 15.368 23.52 15.752C23.52 16.136 23.584 16.52 23.712 16.904L31.872 36.728L41.808 13.544C43.312 9.992 45.072 7.32 47.088 5.528C50.064 2.84 53.184 1.496 56.448 1.496ZM67.5326 46.52H68.1566V47H53.5646V46.52H54.1886C55.0206 46.52 55.7246 46.232 56.3006 45.656C56.9086 45.048 57.2286 44.328 57.2606 43.496V15.368L52.7006 15.56C49.6926 15.688 48.1886 16.808 48.1886 18.92C48.1886 19.784 48.4766 20.52 49.0526 21.128C49.6606 21.704 50.4926 21.992 51.5486 21.992C51.6446 21.992 51.7406 21.992 51.8366 21.992V22.28C51.1966 22.504 50.6526 22.616 50.2046 22.616C48.7646 22.616 47.6606 22.104 46.8926 21.08C46.3486 20.376 46.0766 19.576 46.0766 18.68C46.0766 17.272 46.6366 16.12 47.7566 15.224C48.8446 14.296 50.5406 13.752 52.8446 13.592C53.2606 13.56 54.6046 13.496 56.8766 13.4C62.0606 13.208 65.8206 12.888 68.1566 12.44L68.2526 12.92C66.8766 13.144 65.9006 13.608 65.3246 14.312C64.7806 15.016 64.4926 16.056 64.4606 17.432V43.496C64.4926 44.328 64.7966 45.048 65.3726 45.656C65.9806 46.232 66.7006 46.52 67.5326 46.52ZM79.9673 13.352C80.5113 13.352 81.5033 13.352 82.9433 13.352C84.3833 13.352 87.0553 13.368 90.9593 13.4C96.6233 13.464 101.103 15 104.399 18.008C107.695 20.984 109.343 25.064 109.343 30.248C109.343 35.4 107.695 39.48 104.399 42.488C101.103 45.496 96.6233 47 90.9593 47H73.5353V46.52H74.1593C74.9593 46.52 75.6473 46.248 76.2233 45.704C76.8313 45.128 77.1673 44.44 77.2313 43.64V15.56C73.6473 15.816 70.9913 16.648 69.2632 18.056C68.3992 18.728 67.7272 19.416 67.2472 20.12C66.7352 20.824 66.2392 21.672 65.7592 22.664L65.2792 22.472C66.0472 19.272 67.6472 16.968 70.0793 15.56C72.5433 14.12 75.8393 13.384 79.9673 13.352ZM90.3833 44.984C93.8073 44.984 96.5113 43.656 98.4953 41C100.511 38.344 101.519 34.744 101.519 30.2C101.519 25.656 100.511 22.072 98.4953 19.448C96.5113 16.824 93.8393 15.512 90.4793 15.512C90.4473 15.512 90.4153 15.512 90.3833 15.512H84.4313V44.984H90.3833ZM156.243 55.784C152.755 57.544 149.219 57.832 145.635 56.648C141.827 55.432 138.547 52.84 135.795 48.872C134.323 46.76 133.059 44.312 132.003 41.528L130.467 37.448H119.139L116.595 43.496C116.435 43.912 116.355 44.248 116.355 44.504C116.355 44.76 116.403 45.048 116.499 45.368C116.627 45.656 116.867 45.928 117.219 46.184C117.603 46.408 118.019 46.52 118.467 46.52H118.851V47H108.579V46.52H109.011C109.747 46.52 110.467 46.312 111.171 45.896C111.907 45.448 112.515 44.792 112.995 43.928L123.699 19.496C122.451 16.68 121.123 14.744 119.715 13.688C118.531 12.792 117.395 12.344 116.307 12.344C115.251 12.344 114.259 12.504 113.331 12.824L113.235 12.344C115.539 11.16 117.747 10.568 119.859 10.568C122.483 10.568 124.835 11.592 126.915 13.64C128.963 15.656 130.771 18.568 132.339 22.376L139.299 39.56C141.923 46.056 144.611 50.52 147.363 52.952C148.483 53.944 149.635 54.632 150.819 55.016C152.003 55.4 152.995 55.592 153.795 55.592C154.627 55.592 155.427 55.496 156.195 55.304L156.243 55.784ZM119.955 35.384H129.747L126.387 26.504C126.227 26.056 126.003 25.448 125.715 24.68C125.427 23.88 125.235 23.32 125.139 23L119.955 35.384Z" fill="#5E17EB"/>
</svg>
